<svg width="19" height="19" viewBox="0 0 19 19" fill="none" xmlns="http://www.w3.org/2000/svg">
<path d="M13.2391 11.0444C13.9471 9.93054 14.3625 8.60898 14.3625 7.18831C14.3625 3.21893 11.1483 0 7.18359 0C3.21421 0 0 3.21893 0 7.18831C0 11.1577 3.21421 14.3766 7.17887 14.3766C8.61842 14.3766 9.95885 13.9518 11.0822 13.225L11.4078 12.9984L16.5336 18.1242L18.1242 16.5053L13.0031 11.3795L13.2391 11.0444ZM11.2049 3.17173C12.2763 4.24313 12.8663 5.66852 12.8663 7.18359C12.8663 8.69866 12.2763 10.1241 11.2049 11.1955C10.1335 12.2669 8.7081 12.8568 7.19303 12.8568C5.67796 12.8568 4.25257 12.2669 3.18117 11.1955C2.10977 10.1241 1.51979 8.69866 1.51979 7.18359C1.51979 5.66852 2.10977 4.24313 3.18117 3.17173C4.25257 2.10033 5.67796 1.51035 7.19303 1.51035C8.7081 1.51035 10.1335 2.10033 11.2049 3.17173Z" fill="#D7CECE"/>
</svg>
