<svg width="84" height="84" viewBox="0 0 84 84" fill="none" xmlns="http://www.w3.org/2000/svg">
<g clip-path="url(#clip0_36_430)">
<path d="M18.375 13.125H34.125V23.31C34.125 24.0897 33.8153 24.8375 33.2639 25.3889C32.7125 25.9403 31.9647 26.25 31.185 26.25H21.315C20.5353 26.25 19.7875 25.9403 19.2361 25.3889C18.6847 24.8375 18.375 24.0897 18.375 23.31V13.125Z" fill="#5DB638"/>
<path d="M82.4512 44.625L78.4088 40.5825L73.9725 27.2213C73.6248 26.1736 72.9557 25.2622 72.0603 24.6166C71.1649 23.971 70.0889 23.624 68.985 23.625H52.5V18.375C52.5 16.2864 51.6703 14.2834 50.1935 12.8065C48.7166 11.3297 46.7136 10.5 44.625 10.5H7.875C5.78642 10.5 3.78338 11.3297 2.30653 12.8065C0.829685 14.2834 0 16.2864 0 18.375L0 57.75C0 59.8386 0.829685 61.8416 2.30653 63.3185C3.78338 64.7953 5.78642 65.625 7.875 65.625H10.8675C11.5064 68.0995 13.0259 70.256 15.141 71.6903C17.2562 73.1247 19.8219 73.7383 22.3571 73.4163C24.8924 73.0943 27.2232 71.8587 28.9126 69.9411C30.602 68.0235 31.5341 65.5556 31.5341 63C31.5341 60.4444 30.602 57.9765 28.9126 56.0589C27.2232 54.1413 24.8924 52.9057 22.3571 52.5837C19.8219 52.2617 17.2562 52.8753 15.141 54.3097C13.0259 55.744 11.5064 57.9005 10.8675 60.375H7.875C7.17881 60.375 6.51113 60.0984 6.01884 59.6062C5.52656 59.1139 5.25 58.4462 5.25 57.75V18.375C5.25 17.6788 5.52656 17.0111 6.01884 16.5188C6.51113 16.0266 7.17881 15.75 7.875 15.75H44.625C45.3212 15.75 45.9889 16.0266 46.4812 16.5188C46.9734 17.0111 47.25 17.6788 47.25 18.375V60.375H39.375C38.6788 60.375 38.0111 60.6516 37.5188 61.1438C37.0266 61.6361 36.75 62.3038 36.75 63C36.75 63.6962 37.0266 64.3639 37.5188 64.8562C38.0111 65.3484 38.6788 65.625 39.375 65.625H55.4925C56.097 67.8493 57.4166 69.813 59.2478 71.2129C61.079 72.6129 63.32 73.3714 65.625 73.3714C67.93 73.3714 70.171 72.6129 72.0022 71.2129C73.8334 69.813 75.153 67.8493 75.7575 65.625H78.75C80.1424 65.625 81.4777 65.0719 82.4623 64.0873C83.4469 63.1027 84 61.7674 84 60.375V48.3262C83.9941 46.9361 83.4372 45.605 82.4512 44.625ZM21 57.75C22.0384 57.75 23.0534 58.0579 23.9167 58.6348C24.7801 59.2117 25.453 60.0316 25.8504 60.9909C26.2477 61.9502 26.3517 63.0058 26.1491 64.0242C25.9466 65.0426 25.4465 65.9781 24.7123 66.7123C23.9781 67.4465 23.0426 67.9466 22.0242 68.1491C21.0058 68.3517 19.9502 68.2477 18.9909 67.8504C18.0316 67.453 17.2117 66.7801 16.6348 65.9167C16.0579 65.0534 15.75 64.0384 15.75 63C15.75 61.6076 16.3031 60.2723 17.2877 59.2877C18.2723 58.3031 19.6076 57.75 21 57.75ZM72.4762 39.375H63V28.875H68.985L72.4762 39.375ZM65.625 68.25C64.5866 68.25 63.5716 67.9421 62.7083 67.3652C61.8449 66.7883 61.172 65.9684 60.7746 65.0091C60.3773 64.0498 60.2733 62.9942 60.4759 61.9758C60.6784 60.9574 61.1785 60.0219 61.9127 59.2877C62.6469 58.5535 63.5824 58.0534 64.6008 57.8509C65.6192 57.6483 66.6748 57.7523 67.6341 58.1496C68.5934 58.547 69.4133 59.2199 69.9902 60.0833C70.5671 60.9466 70.875 61.9616 70.875 63C70.875 64.3924 70.3219 65.7277 69.3373 66.7123C68.3527 67.6969 67.0174 68.25 65.625 68.25ZM78.75 60.375H75.7575C75.153 58.1507 73.8334 56.187 72.0022 54.7871C70.171 53.3871 67.93 52.6286 65.625 52.6286C63.32 52.6286 61.079 53.3871 59.2478 54.7871C57.4166 56.187 56.097 58.1507 55.4925 60.375H52.5V28.875H57.75V42C57.75 42.6962 58.0266 43.3639 58.5188 43.8562C59.0111 44.3484 59.6788 44.625 60.375 44.625H75.0488L78.75 48.3262V60.375Z" fill="black"/>
</g>
<defs>
<clipPath id="clip0_36_430">
<rect width="84" height="84" fill="white"/>
</clipPath>
</defs>
</svg>
